<?xml version="1.0" encoding="UTF-8"?>
<svg width="24px" height="24px" viewBox="0 0 24 24" version="1.1" xmlns="http://www.w3.org/2000/svg" xmlns:xlink="http://www.w3.org/1999/xlink">
    <!-- Generator: Sketch 54.1 (76490) - https://sketchapp.com -->
    <title>Path</title>
    <desc>Created with Sketch.</desc>
    <g id="---High-Fidelity" stroke="none" stroke-width="1" fill="none" fill-rule="evenodd">
        <g id="Hifi---Desktop" transform="translate(-1155.000000, -3721.000000)" fill="#4C545C" fill-rule="nonzero">
            <g id="Group-31" transform="translate(0.000000, 3658.000000)">
                <g id="Group-20" transform="translate(1155.000000, 63.000000)">
                    <path d="M22.675,6.66133815e-16 L1.325,6.66133815e-16 C0.593,6.66133815e-16 0,0.593 0,1.325 L0,22.676 C0,23.407 0.593,24 1.325,24 L12.82,24 L12.82,14.706 L9.692,14.706 L9.692,11.084 L12.82,11.084 L12.82,8.413 C12.82,5.313 14.713,3.625 17.479,3.625 C18.804,3.625 19.942,3.724 20.274,3.768 L20.274,7.008 L18.356,7.009 C16.852,7.009 16.561,7.724 16.561,8.772 L16.561,11.085 L20.148,11.085 L19.681,14.707 L16.561,14.707 L16.561,24 L22.677,24 C23.407,24 24,23.407 24,22.675 L24,1.325 C24,0.593 23.407,0 22.675,6.66133815e-16 Z" id="Path"></path>
                </g>
            </g>
        </g>
    </g>
</svg>