<?xml version="1.0" encoding="UTF-8"?>
<svg width="24px" height="20px" viewBox="0 0 24 20" version="1.1" xmlns="http://www.w3.org/2000/svg" xmlns:xlink="http://www.w3.org/1999/xlink">
    <!-- Generator: Sketch 54.1 (76490) - https://sketchapp.com -->
    <title>Path</title>
    <desc>Created with Sketch.</desc>
    <g id="---High-Fidelity" stroke="none" stroke-width="1" fill="none" fill-rule="evenodd">
        <g id="Hifi---Desktop" transform="translate(-1203.000000, -3723.000000)" fill="#4C545C" fill-rule="nonzero">
            <g id="Group-31" transform="translate(0.000000, 3658.000000)">
                <g id="Group-20" transform="translate(1155.000000, 63.000000)">
                    <path d="M72,4.557 C71.117,4.949 70.168,5.213 69.172,5.332 C70.189,4.723 70.97,3.758 71.337,2.608 C70.386,3.172 69.332,3.582 68.21,3.803 C67.313,2.846 66.032,2.248 64.616,2.248 C61.437,2.248 59.101,5.214 59.819,8.293 C55.728,8.088 52.1,6.128 49.671,3.149 C48.381,5.362 49.002,8.257 51.194,9.723 C50.388,9.697 49.628,9.476 48.965,9.107 C48.911,11.388 50.546,13.522 52.914,13.997 C52.221,14.185 51.462,14.229 50.69,14.081 C51.316,16.037 53.134,17.46 55.29,17.5 C53.22,19.123 50.612,19.848 48,19.54 C50.179,20.937 52.768,21.752 55.548,21.752 C64.69,21.752 69.855,14.031 69.543,7.106 C70.505,6.411 71.34,5.544 72,4.557 Z" id="Path"></path>
                </g>
            </g>
        </g>
    </g>
</svg>