<?xml version="1.0" encoding="UTF-8"?>
<svg width="36px" height="32px" viewBox="0 0 36 32" version="1.1" xmlns="http://www.w3.org/2000/svg" xmlns:xlink="http://www.w3.org/1999/xlink">
    <!-- Generator: Sketch 54.1 (76490) - https://sketchapp.com -->
    <title>Combined Shape 2</title>
    <desc>Created with Sketch.</desc>
    <g id="---High-Fidelity" stroke="none" stroke-width="1" fill="none" fill-rule="evenodd">
        <g id="Hifi---Desktop" transform="translate(-702.000000, -2696.000000)" fill="#9EABB2" fill-rule="nonzero">
            <g id="Group-30" transform="translate(165.000000, 2692.000000)">
                <g id="Group-26" transform="translate(380.000000, 4.000000)">
                    <g id="Combined-Shape-2" transform="translate(157.000000, 0.000000)">
                        <path d="M17.8716,14.73584 C18.58608,16.52784 19.31672,18.4532 20.06352,20.47992 C20.81024,22.50664 21.5996,24.72 22.43168,27.12 L17.08792,27.12 C16.85288,26.32 16.59152,25.56232 16.30376,24.75176 C16.01592,23.9412 15.73344,23.12 15.45608,22.32 L6.81544,22.32 C6.53808,23.12 6.25552,23.9412 5.96776,24.75176 C5.68,25.56232 5.41864,26.32 5.1836,27.12 L-2.11386464e-13,27.12 C0.832,24.72 1.62128,22.50264 2.3676,20.47584 C3.11408,18.4492 3.84464,16.51976 4.55952,14.72776 C5.2744,12.93584 5.97848,11.22648 6.67184,9.61576 C7.3652,8.00512 8.08528,6.48 8.832,4.88 L13.5996,4.88 C14.32488,6.48 15.03952,8.00512 15.74368,9.61576 C16.44776,11.22648 17.15704,12.94384 17.8716,14.73584 Z M7.96776,18.32 L14.27144,18.32 C13.93032,17.35992 13.59976,16.44232 13.27976,15.5676 C12.95976,14.69296 12.65576,13.89312 12.36768,13.16784 C12.0796,12.44264 11.82896,11.80264 11.61576,11.24792 C11.40248,10.69328 11.23176,10.25576 11.10352,9.93544 C10.99672,10.25576 10.83672,10.69328 10.62352,11.24792 C10.41032,11.80264 10.16504,12.44256 9.88768,13.16784 C9.61032,13.89312 9.30632,14.69304 8.9756,15.56768 C8.6448,16.4424 8.30888,17.36 7.96776,18.32 Z M35.04,3.2 L31.84,3.2 L31.84,28.8 L35.04,28.8 L35.04,32 L25.44,32 L25.44,28.8 L28.64,28.8 L28.64,3.2 L25.44,3.2 L25.44,0 L35.04,0 L35.04,3.2 Z" id="Combined-Shape"></path>
                    </g>
                </g>
            </g>
        </g>
    </g>
</svg>