<?xml version="1.0" encoding="UTF-8"?>
<svg width="24px" height="24px" viewBox="0 0 24 24" version="1.1" xmlns="http://www.w3.org/2000/svg" xmlns:xlink="http://www.w3.org/1999/xlink">
    <!-- Generator: Sketch 54.1 (76490) - https://sketchapp.com -->
    <title>Shape</title>
    <desc>Created with Sketch.</desc>
    <g id="---High-Fidelity" stroke="none" stroke-width="1" fill="none" fill-rule="evenodd">
        <g id="Hifi---Desktop" transform="translate(-1251.000000, -3721.000000)" fill="#4C545C" fill-rule="nonzero">
            <g id="Group-31" transform="translate(0.000000, 3658.000000)">
                <g id="Group-20" transform="translate(1155.000000, 63.000000)">
                    <path d="M108,2.163 C111.204,2.163 111.584,2.175 112.85,2.233 C116.102,2.381 117.621,3.924 117.769,7.152 C117.827,8.417 117.838,8.797 117.838,12.001 C117.838,15.206 117.826,15.585 117.769,16.85 C117.62,20.075 116.105,21.621 112.85,21.769 C111.584,21.827 111.206,21.839 108,21.839 C104.796,21.839 104.416,21.827 103.151,21.769 C99.891,21.62 98.38,20.07 98.232,16.849 C98.174,15.584 98.162,15.205 98.162,12 C98.162,8.796 98.175,8.417 98.232,7.151 C98.381,3.924 99.896,2.38 103.151,2.232 C104.417,2.175 104.796,2.163 108,2.163 L108,2.163 Z M108,0 C104.741,4.85722573e-16 104.333,0.014 103.053,0.072 C98.695,0.272 96.273,2.69 96.073,7.052 C96.014,8.333 96,8.741 96,12 C96,15.259 96.014,15.668 96.072,16.948 C96.272,21.306 98.69,23.728 103.052,23.928 C104.333,23.986 104.741,24 108,24 C111.259,24 111.668,23.986 112.948,23.928 C117.302,23.728 119.73,21.31 119.927,16.948 C119.986,15.668 120,15.259 120,12 C120,8.741 119.986,8.333 119.928,7.053 C119.732,2.699 117.311,0.273 112.949,0.073 C111.668,0.014 111.259,0 108,0 Z M108,5.838 C104.597,5.838 101.838,8.597 101.838,12 C101.838,15.403 104.597,18.163 108,18.163 C111.403,18.163 114.162,15.404 114.162,12 C114.162,8.597 111.403,5.838 108,5.838 Z M108,16 C105.791,16 104,14.21 104,12 C104,9.791 105.791,8 108,8 C110.209,8 112,9.791 112,12 C112,14.21 110.209,16 108,16 Z M114.406,4.155 C113.61,4.155 112.965,4.8 112.965,5.595 C112.965,6.39 113.61,7.035 114.406,7.035 C115.201,7.035 115.845,6.39 115.845,5.595 C115.845,4.8 115.201,4.155 114.406,4.155 Z" id="Shape"></path>
                </g>
            </g>
        </g>
    </g>
</svg>