<svg xmlns="http://www.w3.org/2000/svg" viewBox="0 0 100 100" width="200px" height="200px"><path fill="#c7dff1" d="M64,68H19c-2.209,0-4-1.791-4-4V19c0-2.209,1.791-4,4-4h45c2.209,0,4,1.791,4,4v45	C68,66.209,66.209,68,64,68z"/><path fill="#1f212b" d="M64,69H19c-2.757,0-5-2.243-5-5V19c0-2.757,2.243-5,5-5h45c2.757,0,5,2.243,5,5v45	C69,66.757,66.757,69,64,69z M19,16c-1.654,0-3,1.346-3,3v45c0,1.654,1.346,3,3,3h45c1.654,0,3-1.346,3-3V19c0-1.654-1.346-3-3-3H19	z"/><path fill="#78a2d2" d="M70,74H25c-2.209,0-4-1.791-4-4V25c0-2.209,1.791-4,4-4h45c2.209,0,4,1.791,4,4v45	C74,72.209,72.209,74,70,74z"/><path fill="#1f212b" d="M70,75H25c-2.757,0-5-2.243-5-5V25c0-2.757,2.243-5,5-5h45c2.757,0,5,2.243,5,5v45	C75,72.757,72.757,75,70,75z M25,22c-1.654,0-3,1.346-3,3v45c0,1.654,1.346,3,3,3h45c1.654,0,3-1.346,3-3V25c0-1.654-1.346-3-3-3H25	z"/><path fill="#c7dff1" d="M76,81H31c-2.761,0-5-2.239-5-5V31c0-2.761,2.239-5,5-5h45c2.761,0,5,2.239,5,5v45	C81,78.761,78.761,81,76,81z"/><path fill="#1f212b" d="M65,81H31c-2.757,0-5-2.243-5-5V31c0-2.757,2.243-5,5-5h45c2.757,0,5,2.243,5,5v34	c0,0.552-0.448,1-1,1s-1-0.448-1-1V31c0-1.654-1.346-3-3-3H31c-1.654,0-3,1.346-3,3v45c0,1.654,1.346,3,3,3h34c0.552,0,1,0.448,1,1	S65.552,81,65,81z"/><path fill="#1f212b" d="M75.5,61c-0.276,0-0.5-0.224-0.5-0.5v-13c0-0.276,0.224-0.5,0.5-0.5s0.5,0.224,0.5,0.5v13	C76,60.776,75.776,61,75.5,61z"/><path fill="#1f212b" d="M60.5,76h-25c-2.481,0-4.5-2.019-4.5-4.5v-36c0-2.481,2.019-4.5,4.5-4.5h26	c0.276,0,0.5,0.224,0.5,0.5S61.776,32,61.5,32h-26c-1.93,0-3.5,1.57-3.5,3.5v36c0,1.93,1.57,3.5,3.5,3.5h25	c0.276,0,0.5,0.224,0.5,0.5S60.776,76,60.5,76z"/><path fill="#1f212b" d="M75.5,46c-0.276,0-0.5-0.224-0.5-0.5v-4c0-0.276,0.224-0.5,0.5-0.5s0.5,0.224,0.5,0.5v4	C76,45.776,75.776,46,75.5,46z"/><path fill="#1f212b" d="M75.5,40c-0.276,0-0.5-0.224-0.5-0.5v-1c0-0.276,0.224-0.5,0.5-0.5s0.5,0.224,0.5,0.5v1	C76,39.776,75.776,40,75.5,40z"/><rect width="13.214" height="25.566" x="60.854" y="54.678" fill="#fcba7f" transform="rotate(-45.001 67.46 67.462)"/><polygon fill="#fefdef" points="48.719,48 48,48.719 53.75,63.094 63.094,53.75"/><polygon fill="#565fa1" points="54,50 49,48 48,49 50,54"/><path fill="#f37e98" d="M85.38,85.38L85.38,85.38c2.581-2.581,3.393-5.954,1.813-7.534l-0.631-0.627l-5.391-5.391	l-9.344,9.344l5.391,5.391l0.627,0.631C79.426,88.773,82.799,87.961,85.38,85.38z"/><rect width="12.728" height="6.157" x="72.313" y="75.598" fill="#7a91c9" transform="rotate(-45.001 78.676 78.678)"/><path fill="#1f212b" d="M80.025,89.001c-1.131,0-2.142-0.357-2.886-1.101l-0.629-0.633L53.043,63.801	c-0.096-0.096-0.171-0.21-0.222-0.335l-5.75-14.375c-0.148-0.372-0.061-0.796,0.222-1.079l0.719-0.719	c0.283-0.284,0.708-0.37,1.079-0.222l14.375,5.75c0.125,0.05,0.24,0.126,0.335,0.222l24.098,24.093	c2.002,2.003,1.206,5.934-1.812,8.951l0,0l0,0C84.192,87.982,81.936,89.001,80.025,89.001z M54.602,62.532l23.953,23.957	c1.016,1.016,3.78,0.523,6.118-1.815l0,0c2.337-2.337,2.832-5.101,1.813-6.12l-0.629-0.625L62.532,54.602l-13.216-5.286	L54.602,62.532z"/><rect width="12.198" height="2" x="70.401" y="75.5" fill="#1f212b" transform="rotate(-45.001 76.5 76.501)"/><rect width="13.214" height="2" x="51.815" y="57.422" fill="#1f212b" transform="rotate(-45.001 58.422 58.423)"/><rect width="4.243" height="1" x="49.879" y="51.5" fill="#1f212b" transform="rotate(-45.001 52 52)"/><path fill="#1f212b" d="M72.5,73c-0.128,0-0.256-0.049-0.354-0.146l-14-14c-0.195-0.195-0.195-0.512,0-0.707	s0.512-0.195,0.707,0l14,14c0.195,0.195,0.195,0.512,0,0.707C72.756,72.951,72.628,73,72.5,73z"/><path fill="#1f212b" d="M73.5,79c-0.128,0-0.256-0.049-0.354-0.146l-12-12c-0.195-0.195-0.195-0.512,0-0.707	s0.512-0.195,0.707,0l12,12c0.195,0.195,0.195,0.512,0,0.707C73.756,78.951,73.628,79,73.5,79z"/><path fill="#1f212b" d="M68.5,64c-0.128,0-0.256-0.049-0.354-0.146l-7.5-7.5c-0.195-0.195-0.195-0.512,0-0.707	s0.512-0.195,0.707,0l7.5,7.5c0.195,0.195,0.195,0.512,0,0.707C68.756,63.951,68.628,64,68.5,64z"/><path fill="#1f212b" d="M78.5,74c-0.128,0-0.256-0.049-0.354-0.146l-8-8c-0.195-0.195-0.195-0.512,0-0.707	s0.512-0.195,0.707,0l8,8c0.195,0.195,0.195,0.512,0,0.707C78.756,73.951,78.628,74,78.5,74z"/><path fill="#1f212b" d="M76,76.5c-0.128,0-0.256-0.049-0.354-0.146l-1.5-1.5c-0.195-0.195-0.195-0.512,0-0.707	s0.512-0.195,0.707,0l1.5,1.5c0.195,0.195,0.195,0.512,0,0.707C76.256,76.451,76.128,76.5,76,76.5z"/><path fill="#1f212b" d="M59.5,65c-0.128,0-0.256-0.049-0.354-0.146l-1-1c-0.195-0.195-0.195-0.512,0-0.707	s0.512-0.195,0.707,0l1,1c0.195,0.195,0.195,0.512,0,0.707C59.756,64.951,59.628,65,59.5,65z"/><path fill="#1f212b" d="M79.5,82c-0.128,0-0.256-0.049-0.354-0.146c-0.195-0.195-0.195-0.512,0-0.707l6-6	c0.195-0.195,0.512-0.195,0.707,0s0.195,0.512,0,0.707l-6,6C79.756,81.951,79.628,82,79.5,82z"/><path fill="#1f212b" d="M75.5,86c-0.128,0-0.256-0.049-0.354-0.146c-0.195-0.195-0.195-0.512,0-0.707l2-2	c0.195-0.195,0.512-0.195,0.707,0s0.195,0.512,0,0.707l-2,2C75.756,85.951,75.628,86,75.5,86z"/></svg>