<?xml version="1.0" encoding="UTF-8"?>
<svg width="50px" height="32px" viewBox="0 0 50 32" version="1.1" xmlns="http://www.w3.org/2000/svg" xmlns:xlink="http://www.w3.org/1999/xlink">
    <!-- Generator: Sketch 54.1 (76490) - https://sketchapp.com -->
    <title>Shape</title>
    <desc>Created with Sketch.</desc>
    <g id="---High-Fidelity" stroke="none" stroke-width="1" fill="none" fill-rule="evenodd">
        <g id="Hifi---Desktop" transform="translate(-1075.000000, -2696.000000)" fill="#9EABB2" fill-rule="nonzero">
            <g id="Group-30" transform="translate(165.000000, 2692.000000)">
                <g id="Group-25" transform="translate(760.000000, 4.035394)">
                    <path d="M199.058715,14.0365576 C196.474376,9.80993939 192.999564,6.41386667 188.634764,3.84843636 C184.269673,1.28290909 179.660315,-2.0783375e-13 174.806109,-2.0783375e-13 C169.951903,-2.0783375e-13 165.342352,1.28242424 160.977261,3.84843636 C156.612073,6.41386667 153.137455,9.80993939 150.553503,14.0365576 C150.184533,14.6824727 150,15.3192727 150,15.9469576 C150,16.5746424 150.184533,17.2114424 150.553503,17.8571636 C153.137455,22.0839758 156.612073,25.4803394 160.977261,28.0451879 C165.342352,30.6110061 169.951903,31.8929455 174.806109,31.8929455 C179.660412,31.8929455 184.26977,30.6152727 188.634764,28.0591515 C192.999564,25.5029333 196.474958,22.1021091 199.058715,17.8571636 C199.427782,17.2114424 199.612218,16.5749333 199.612218,15.9469576 C199.612218,15.3192727 199.427782,14.6824727 199.058715,14.0365576 Z M168.8672,6.46448485 C170.518982,4.81270303 172.498424,3.98652121 174.805818,3.98652121 C175.174788,3.98652121 175.488776,4.11607273 175.747297,4.37430303 C176.00543,4.6326303 176.135176,4.94652121 176.135176,5.31558788 C176.135176,5.68494545 176.00543,5.99864242 175.747879,6.25658182 C175.489745,6.5152 175.175564,6.64436364 174.806497,6.64436364 C173.219297,6.64436364 171.862303,7.20756364 170.736582,8.33318788 C169.610473,9.45949091 169.047758,10.815903 169.047758,12.403103 C169.047758,12.7726545 168.918206,13.0861576 168.659976,13.3446788 C168.401358,13.6033939 168.087758,13.7324606 167.718691,13.7324606 C167.349333,13.7324606 167.035636,13.603103 166.777115,13.3446788 C166.518497,13.0861576 166.389333,12.7722667 166.389333,12.403103 C166.389333,10.0961939 167.215515,8.11636364 168.8672,6.46448485 Z M186.835588,24.9866667 C183.134836,27.2286061 179.125139,28.3502545 174.806109,28.3502545 C170.487176,28.3502545 166.477479,27.2292848 162.776921,24.9866667 C159.076364,22.7440485 155.998642,19.7309091 153.543952,15.9469576 C156.349382,11.5909818 159.865406,8.33309091 164.092024,6.17406061 C162.966206,8.09328485 162.403103,10.1698909 162.403103,12.4030061 C162.403103,15.8178909 163.616873,18.7379394 166.043733,21.1653818 C168.470594,23.5928242 171.391709,24.8060121 174.806109,24.8060121 C178.2208,24.8060121 181.141042,23.5921455 183.568485,21.1653818 C185.995927,18.7386182 187.209212,15.8178909 187.209212,12.4030061 C187.209212,10.1698909 186.646012,8.09299394 185.520097,6.17406061 C189.746521,8.33309091 193.262739,11.5912727 196.068073,15.9469576 C193.61377,19.7309091 190.536339,22.7440485 186.835588,24.9866667 Z" id="Shape"></path>
                </g>
            </g>
        </g>
    </g>
</svg>